<svg xmlns="http://www.w3.org/2000/svg"><style>:root svg:not(:target){display:none}</style><svg viewBox="0 0 19 14" fill="none" id="email-icon"><line x1="0.65" y1="6" x2="0.65" y2="14" stroke="currentColor" stroke-width="1.3"></line><line x1="17.65" y1="6" x2="17.65" y2="14" stroke="currentColor" stroke-width="1.3"></line><line y1="13.35" x2="18" y2="13.35" stroke="currentColor" stroke-width="1.3"></line><line y1="1.35" x2="18" y2="1.35" stroke="currentColor" stroke-width="1.3"></line><path d="M17.35 3.1821L9.00002 9.67654L0.65 3.18209V1.65H3.5L9.00002 1.65H14H17.35V3.1821Z" stroke="currentColor" stroke-width="1.3"></path></svg><svg fill="none" viewBox="0 0 78 81" id="icon-gift"><path fill="#fff" d="M64.02 35.63H14.03a3.18 3.18 0 0 1-3.18-3.16V23a3.18 3.18 0 0 1 3.18-3.16h49.98A3.17 3.17 0 0 1 67.2 23v9.47a3.17 3.17 0 0 1-3.18 3.16ZM14.03 22.26c-.4 0-.74.34-.74.74v9.47c0 .4.33.74.74.74h49.98c.41 0 .75-.33.75-.74V23c0-.4-.34-.74-.75-.74H14.03Z"></path><path fill="#fff" d="M57.04 68.08H21A6.11 6.11 0 0 1 14.87 62V34.42c0-.67.55-1.21 1.22-1.21.68 0 1.22.54 1.22 1.21V62A3.68 3.68 0 0 0 21 65.66h36.04a3.68 3.68 0 0 0 3.7-3.67V34.42a1.22 1.22 0 0 1 2.44 0V62a6.11 6.11 0 0 1-6.14 6.1Z"></path><path fill="#fff" d="M39.02 68.08c-.67 0-1.22-.54-1.22-1.2V34.41c0-.67.55-1.21 1.22-1.21.68 0 1.22.54 1.22 1.21v32.45c0 .67-.54 1.21-1.22 1.21ZM23.81 22.26a7.81 7.81 0 0 1-3.17-10.6A7.9 7.9 0 0 1 31.3 8.5c5.82 3.13 8.96 11.86 9.09 12.23l-2.3.8c-.03-.08-2.96-8.22-7.95-10.9a5.45 5.45 0 0 0-7.36 2.17 5.4 5.4 0 0 0 2.2 7.33l-1.17 2.13Z"></path><path fill="#fff" d="m54.23 22.26-1.16-2.14a5.38 5.38 0 0 0-1.03-9.92 5.42 5.42 0 0 0-4.14.43c-4.98 2.68-7.91 10.82-7.94 10.9l-2.3-.8c.13-.37 3.27-9.1 9.08-12.23a7.86 7.86 0 0 1 11.29 9.1c-.6 2-1.95 3.66-3.8 4.66ZM61.95 51.86H16.09c-.67 0-1.22-.55-1.22-1.21 0-.67.55-1.22 1.22-1.22h45.86a1.21 1.21 0 1 1 0 2.42Z"></path></svg><svg fill="none" viewBox="0 0 32 12" id="icon_arrow"><path stroke="#000" stroke-width="2" d="M0 6h18"></path><path fill="#000" d="m24 6-6.75 5.2V.8L24 6Z"></path></svg><svg fill="none" viewBox="0 0 26 31" id="method-item-clock"><path fill="#fff" d="M5.54 0c-1.06 0-1.06 1.58 0 1.58h6.64v1.6C5.38 3.63 0 9.42 0 16.49c0 4.02 1.74 7.64 4.5 10.07.47.43.54 1.18.1 1.64l-1.53 1.55c-.74.69.36 1.75 1.03 1l2-2.03c.35-.34.87-.43 1.3-.21a12.7 12.7 0 0 0 11.07.06c.43-.21.96-.13 1.3.21l1.94 1.97c.68.64 1.65-.31 1.04-1l-1.45-1.48c-.44-.45-.38-1.2.1-1.63A13.46 13.46 0 0 0 26 16.47C26 9.4 20.59 3.6 13.78 3.2v-1.6h6.64c1.06 0 1.06-1.59 0-1.59H5.54Zm-4.1 16.47A11.7 11.7 0 0 1 13 4.65c6.38 0 11.55 5.3 11.55 11.82 0 6.55-5.17 11.85-11.55 11.85-6.38 0-11.57-5.3-11.57-11.85Zm10.75-8.09c0-1.1 1.66-1.1 1.66 0v8.63a.84.84 0 0 1-.85.85.81.81 0 0 1-.8-.8V8.39ZM7.22 11a1.16 1.16 0 0 0 1.16-1.15A1.15 1.15 0 0 0 7.22 8.7a1.16 1.16 0 0 0-1.05 1.14A1.15 1.15 0 0 0 7.22 11Zm11.55 0a1.16 1.16 0 0 0 1.16-1.15 1.15 1.15 0 0 0-1.16-1.15 1.16 1.16 0 0 0-1.05 1.14A1.15 1.15 0 0 0 18.77 11ZM8.37 23.59c0 1.53-2.31 1.53-2.31 0s2.32-1.53 2.32 0ZM13 27.03a1.17 1.17 0 0 0 1.17-.68 1.14 1.14 0 0 0-.7-1.56 1.17 1.17 0 0 0-1.22.32 1.15 1.15 0 0 0 .75 1.92ZM4.91 16.64a1.14 1.14 0 0 1-.68 1.17 1.17 1.17 0 0 1-1.57-.7 1.14 1.14 0 0 1 .32-1.2 1.16 1.16 0 0 1 1.93.73Zm17.33 1.15a1.16 1.16 0 0 0 1.17-.68 1.14 1.14 0 0 0-.7-1.55 1.17 1.17 0 0 0-1.22.32 1.15 1.15 0 0 0 .75 1.91Zm-2.31 5.8c0 1.53-2.32 1.53-2.32 0s2.32-1.53 2.32 0Z"></path></svg><svg fill="none" viewBox="0 0 26 29" id="method-item-flask"><path fill="#fff" d="M10.88 0c-1.64 0-2.9 1.36-2.9 3.08s1.26 3.08 2.9 3.08c1.63 0 2.9-1.36 2.9-3.08S12.5 0 10.88 0Zm0 1.18c1 0 1.72.84 1.72 1.9 0 1-.8 1.9-1.72 1.9-1 0-1.73-.84-1.73-1.9 0-1 .78-1.9 1.72-1.9ZM0 24.74c0 1.18.4 2.18 1.36 3 1 .84 2.17.77 2.17.77h19.04c.77 0 1.8-.38 2.62-1.45.85-1 .8-2.36.8-2.36V7.5c0-.44-.12-.6-.75-.6-.64 0-.69.27-.69.59V24.7c-.02.3-.07 1.08-.74 1.72-.74.62-1.45.54-1.45.54s-18.13 0-19.03-.03c-.35-.06-.91-.19-1.45-.9-.51-.73-.41-1.63-.41-1.63V7.18c0-.46-.24-.64-.73-.64S0 6.72 0 7.12v17.62ZM16.31 8.43c-1.08.23-2.17.38-4.26 2.35-2.08 2-3.62 1.9-5.16 1.82-1.54-.1-3.17-1.54-3.45-1.9-.33-.36-.9-.12-1.08.11-.16.24-.16.64.1 1 1.27 1.18 2.45 2.08 4.72 2.26a7.5 7.5 0 0 0 5.89-2.26c1.45-1.45 2.17-1.72 3.26-1.9a6.3 6.3 0 0 1 5.08 1.26c1 1.1 1.26.78 1.54.48.54-.72-.23-1.27-1.1-1.9a7.24 7.24 0 0 0-5.52-1.28l-.02-.04Zm-9.06 7.16c-1.18 0-2.08 1-2.08 2.26 0 1.27.9 2.27 2.08 2.27 1.18 0 2.08-1 2.08-2.27s-.9-2.26-2.08-2.26Zm11.78.78c-1.54 0-2.8 1.36-2.8 2.99 0 1.63 1.26 2.99 2.8 2.99 1.54 0 2.81-1.36 2.81-3 0-1.62-1.27-2.98-2.8-2.98Zm0 1.45c.8 0 1.45.7 1.45 1.54a1.5 1.5 0 0 1-1.45 1.54c-.8 0-1.45-.7-1.45-1.54 0-.86.65-1.54 1.45-1.54Z"></path></svg><svg fill="none" viewBox="0 0 25 28" id="method-item-leaf"><path fill="#fff" d="M24.84.77a.95.95 0 0 0-.9-.77h-.01C18.99.03 6.98.92 2.13 8.38-.38 12.26-.6 17.29 1.5 23.34l.07.13a25.93 25.93 0 0 0-1.04 3.32c-.11.54.21 1.07.72 1.19l.2.02c.43 0 .81-.32.9-.79.03-.1 2.42-10.37 10.86-16.38.43-.3.55-.93.26-1.38a.9.9 0 0 0-1.3-.28c-4.79 3.4-7.74 8-9.47 11.65-1.24-4.57-.92-8.37.99-11.3C7.42 3.76 16.3 2.37 21.66 2.07c-1.16 1.8-2.41 5.1-2.41 10.93 0 3.12-.83 5.52-2.47 7.14-2.62 2.6-6.88 2.83-10 2.58-.51-.04-.96.38-1 .93-.04.55.35 1.03.86 1.07.63.05 1.3.08 1.99.08 3.17 0 6.86-.66 9.42-3.2 2.04-2 3.07-4.9 3.07-8.6 0-9.1 3.22-11.1 3.23-11.1.4-.21.6-.68.5-1.13Z"></path></svg><svg fill="none" viewBox="0 0 25 30" id="method-item-utensils"><path fill="#fff" fill-rule="evenodd" d="M18.62.08a1 1 0 0 1 1.09.21c.9.91 2.1 2.88 3.06 5.92A42.6 42.6 0 0 1 24.5 19a1 1 0 0 1-1 1H20v9a1 1 0 1 1-2 0V1a1 1 0 0 1 .62-.92ZM20 18h2.5a39.62 39.62 0 0 0-1.64-11.19 22.4 22.4 0 0 0-.86-2.3V18ZM6 0a1 1 0 0 1 1 1v28a1 1 0 1 1-2 0V1a1 1 0 0 1 1-1Z" clip-rule="evenodd"></path><path fill="#fff" fill-rule="evenodd" d="M1.5 0a1 1 0 0 1 1 1v5.5c0 .56.2 1.32.7 1.92.48.56 1.31 1.08 2.8 1.08a1 1 0 1 1 0 2 5.41 5.41 0 0 1-4.33-1.8A5.07 5.07 0 0 1 .5 6.5V1a1 1 0 0 1 1-1Z" clip-rule="evenodd"></path><path fill="#fff" fill-rule="evenodd" d="M10.5 0a1 1 0 0 0-1 1v5.5c0 .56-.2 1.32-.7 1.92C8.32 8.98 7.49 9.5 6 9.5a1 1 0 0 0 0 2c2.01 0 3.43-.73 4.33-1.8a5.07 5.07 0 0 0 1.17-3.2V1a1 1 0 0 0-1-1Z" clip-rule="evenodd"></path></svg><svg fill="none" viewBox="0 0 21 20" id="phone-icon"><path stroke="currentColor" stroke-linecap="round" stroke-linejoin="round" d="M10 10h8.5m0 0L16 7.5m2.5 2.5L16 12.5m-7.5-10v5h-3v5h3v5H6c-1.5 0-2.5-1-2.5-2.5V5c0-1.5 1-2.5 2.5-2.5h2.5Z"></path></svg><svg fill="none" viewBox="0 0 67 28" id="program-cat-pro"><path fill="#000" d="M61.53 2.87a7.59 7.59 0 0 1 2.25-2.3c.5-.34.8-.34 1.1.3.4.95.75 1.95.45 3a1.14 1.14 0 0 0 .2 1.04c.3.4.55.8.8 1.15a3.12 3.12 0 0 1 .45 3.1 2.7 2.7 0 0 0-.1 1.54c.1.5.1 1 0 1.5a1.87 1.87 0 0 1-1.35 1.59 2.6 2.6 0 0 0-1.6 1 .52.52 0 0 1-.45.25c-.6.1-2.1-1.25-2.1-1.85v-.3c.05-1.8-.05-1.94-1.7-2.7a2.2 2.2 0 0 1-.9-.59c-.3-.4-.7-.35-1.15-.2-.45.15-.7.45-.65.95.15 1.2.2 2.42.15 3.64 0 .14.04.27.1.4 1.55 2.24 2.15 4.88 2.9 7.43.6 1.94 1.7 2.99 3.7 3.14.32.02.64.07.95.15a2.08 2.08 0 0 1 1.7 1.6c.35 1.04.15 1.29-.9 1.29h-3.25c-.42.02-.83-.12-1.15-.4a5.85 5.85 0 0 0-1.7-1 3.63 3.63 0 0 1-1.7-1.3 14.28 14.28 0 0 0-2-2.24c-1.4-1.44-2.9-2.84-4.2-4.34a5.67 5.67 0 0 1-1.6-3.78c0-.45-.1-.65-.6-.45a.97.97 0 0 1-.5.15c-1.4 0-2.1.84-2.6 2.09-.44 1.05-1.04 2.04-1.6 3.1a5.17 5.17 0 0 0-.5 2.09c0 1.2.3 1.6 1.4 1.99.7.25 1.36.5 1.7 1.2.4.8.3 1-.54 1.04h-3.4a.94.94 0 0 1-.95-.55l-.9-1.5a3.01 3.01 0 0 1-.35-2.68 5.9 5.9 0 0 0 .05-2.65 4.19 4.19 0 0 1 .85-3.49c.3-.34.3-.5-.2-.6a25.06 25.06 0 0 1-5.95-2.09c-1.6-.6-1.9-.5-2.35 1.15-.4 1.4-.8 2.8-1.1 4.24-.35 1.6.05 3.09.55 4.58.2.6.8.55 1.25.7 1 .3 1.85.7 2.25 1.75.35.8.3.9-.55.9-.85 0-1.7-.06-2.6 0-.76 0-1.5-.24-2.1-.7-2.4-1.6-3.1-4.04-3.3-6.68-.1-1.65-1-2.95-2.04-4.2-.2-.24-.4-.34-.7-.14-1.08.59-2.2 1.09-3.35 1.5a13.35 13.35 0 0 0-6.1 4.38 5.3 5.3 0 0 0-1.1 2.54c-.15.9.1 1.3 1 1.55s1.35.75 1.45 1.7c.05.4-.1.6-.5.6h-4.05a.83.83 0 0 1-.65-.4 4.26 4.26 0 0 1-.95-2.75c-.02-1.72.13-3.44.45-5.13a3.14 3.14 0 0 1 1.7-2.4c2.95-1.4 4.5-4.04 5.9-6.78.3-.55.05-.65-.45-.6-1.4.2-2.72.75-3.85 1.6a35.27 35.27 0 0 0-4.15 3.54 8.34 8.34 0 0 1-5.14 2.44c-3.65.2-5.35-1.84-5.2-5.13.03-1.12.46-2.2 1.2-3.04a2.12 2.12 0 0 1 2.25-.75c.75.2.95.6.65 1.34-.15.3-.35.55-.5.85-.22.3-.39.64-.5 1-.55 1.5.2 2.54 1.75 2.7 1.65.14 3-.56 4.24-1.55 1.51-1.2 2.85-2.6 4-4.14a10.38 10.38 0 0 1 7.2-4.04c1.15-.15 2.15-.65 3.25-.95a20.8 20.8 0 0 1 6.34-.9c1 .05 2-.14 2.9-.54 2.45-1 5-1 7.55-.5 2 .4 4 .9 5.95 1.4a8.3 8.3 0 0 0 3.5-.1c2.19-.56 4.43-.9 6.7-1a9.1 9.1 0 0 1 4.3.84c.99.45.99.45.74 1.4Z"></path></svg><svg fill="none" viewBox="0 0 36 50" id="program-cat-slim"><g clip-path="url(#program-cat-slim_0)"><path fill="#000" d="M28.2 0H28c-.32.19-.59.47-.74.82a8.03 8.03 0 0 0-.67 1.76.84.84 0 0 1-.76.69 3.77 3.77 0 0 0-2.69 1.95c-.37.66-.69 1.35-.95 2.06-.73 1.9-1.29 3.85-1.98 5.77-.32.87-.34.87-1.32.87-1.16 0-1.08-.18-1.1 1.1 0 .41.13.62.56.6.13 0 .33-.07.39.1.05.18-.13.26-.23.36a4.63 4.63 0 0 1-2.23 1.26c-.97.26-1.97.47-2.92.79-2.45.82-4.7 1.96-6.46 3.9a14.44 14.44 0 0 0-2.44 4.04c-1.89 4.46-2.8 9.15-3.51 13.88a97.06 97.06 0 0 0-.75 6.7C.1 47.75 0 48.88 0 50h17.14c.03-.23-.01-.46-.12-.66a2.58 2.58 0 0 0-1.97-1.58c-.36-.08-.4-.2-.18-.48.36-.48.64-1.02.82-1.6.84-2.47 1.16-5.06 1.57-7.62.23-1.96.83-3.85 1.77-5.59a11.13 11.13 0 0 1 2.87-3.28c.43-.32.45-.32.52.23.05.36.06.74.09 1.11.15 2.44.12 4.88-.1 7.31-.2 1.88-.22 3.78-.07 5.67.2 2.2.59 4.36 1.16 6.49h6.84a2.8 2.8 0 0 0-2.18-2.29c-.64-.1-1.3-.07-1.93.1-.31.08-.44 0-.46-.33-.22-2.73-.04-5.47.51-8.16a91.8 91.8 0 0 0 1.57-9.37c.14-1.27.54-2.5 1.18-3.6.6-1.1 1.14-2.23 1.74-3.33a3.03 3.03 0 0 0 .22-2.67c-.14-.37-.27-.74-.44-1.1-.52-1-1.03-2-1.5-3-.26-.52-.2-.59.36-.6.84 0 .84 0 .86-.85v-.34c0-.35-.14-.55-.52-.51h-.78c-.36 0-.46-.15-.37-.52a3.22 3.22 0 0 1 2.64-2.28 11.3 11.3 0 0 1 3.4.22.51.51 0 0 0 .65-.33 40 40 0 0 1 .66-1.55.52.52 0 0 0-.05-.58c-1.65-2.1-3.43-4.05-5.87-5.3a.77.77 0 0 1-.45-.58c-.14-.74-.35-1.46-.65-2.14A1.8 1.8 0 0 0 28.2 0Z"></path></g><defs><clipPath id="program-cat-slim_0"><path fill="#fff" d="M0 0h36v50H0z"></path></clipPath></defs></svg><svg viewBox="0 0 24 18" fill="none" id="slider-thumb"><path d="M8 0L0 9L8 18V0Z" fill="#666666"></path><path d="M24 9L16 0V18L24 9Z" fill="#666666"></path></svg><svg fill="none" viewBox="0 0 20 18" id="socials-telegram"><path fill="currentColor" fill-rule="evenodd" d="M19.46.15c.18.15.27.38.23.61l-2.63 15.76a.66.66 0 0 1-1.01.44l-7.88-5.25a.66.66 0 0 1-.15-.96l2.61-3.26-4.36 2.9a.66.66 0 0 1-.65.05L.36 7.8a.66.66 0 0 1 .08-1.2L18.82.03a.66.66 0 0 1 .64.11ZM2.33 7.32 5.86 9.1l7.56-5.04a.66.66 0 0 1 .88.96l-4.8 6 6.43 4.3 2.28-13.66L2.33 7.32Z" clip-rule="evenodd"></path></svg><svg fill="none" viewBox="0 0 27 17" id="socials-vk"><path fill="currentColor" d="M0 2.34C0 1.48.52 1.02 1.55.96l3.97.02c.26 0 .44.13.53.38.4 1.26.86 2.34 1.37 3.25.5.92 1.17 1.97 1.99 3.16.07.15.18.23.34.23.13 0 .22-.06.3-.18l.07-.28.03-4.35c0-.3-.07-.5-.23-.6-.15-.1-.43-.18-.83-.23-.32-.05-.48-.23-.48-.55 0-.07 0-.12.02-.15C9.01.57 10.07.03 11.83.03l1.5-.03C14 0 14.55.16 15 .48c.44.32.67.82.67 1.5V7.7c.12.08.24.12.34.12.27 0 .5-.15.7-.45 1.95-2.58 3-4.31 3.17-5.18 0-.02.01-.06.05-.13.12-.25.33-.47.61-.65.29-.19.53-.31.75-.38a.55.55 0 0 1 .24-.05h4.13l.26.03c.36 0 .63.16.83.47.07.1.12.21.15.33a2.4 2.4 0 0 1 .06.55v.18a6.11 6.11 0 0 1-.94 2.2c-.5.78-1.15 1.62-1.93 2.53-.79.9-1.27 1.5-1.47 1.78-.16.2-.24.39-.24.56 0 .13.07.28.21.45l3.9 4.63c.2.26.31.56.31.88 0 .38-.16.7-.48.95-.32.25-.7.4-1.14.43l-.46.02h-4.04c-.02 0-.06 0-.11.02a.86.86 0 0 1-.1.01c-.4 0-.76-.16-1.1-.48-.12-.13-.96-1.12-2.5-2.97a1.39 1.39 0 0 0-.38-.32 38.47 38.47 0 0 0-.53 2.24l-.08.42a1.4 1.4 0 0 1-1.12 1.06l-.37.02h-2.61c-1.48 0-2.95-.63-4.41-1.9a19.3 19.3 0 0 1-3.96-4.95A47.51 47.51 0 0 1 .13 3.07 1.92 1.92 0 0 1 0 2.34Zm16.01 6.51c-.37 0-.7-.1-1.01-.29a.9.9 0 0 1-.45-.79V2c0-.34-.1-.58-.27-.72-.18-.14-.49-.21-.93-.21l-1.52.05c-.76 0-1.34.12-1.73.37.78.36 1.17.93 1.17 1.71v4.43a1.5 1.5 0 0 1-.53 1.04c-.32.28-.68.42-1.07.42-.53 0-.94-.24-1.22-.73a26.16 26.16 0 0 1-3.1-5.63l-.23-.66-3.55-.02c-.23 0-.36.01-.38.03-.03.03-.04.1-.04.22 0 .15.01.3.05.48l.56 1.4c1.49 3.64 3.11 6.51 4.86 8.6 1.75 2.1 3.47 3.15 5.16 3.15h2.66c.1 0 .19-.03.24-.09.05-.06.1-.17.13-.34l.06-.25.5-2.21c.15-.3.27-.5.38-.6.2-.2.42-.28.69-.28.43 0 .86.24 1.3.73l2.27 2.71c.14.22.3.33.45.33h4.4c.53 0 .8-.13.8-.38a.47.47 0 0 0-.08-.25l-3.87-4.55c-.3-.35-.45-.73-.45-1.13 0-.4.14-.8.43-1.16.23-.34.68-.9 1.34-1.67.67-.78 1.25-1.51 1.75-2.19.5-.68.82-1.3.98-1.85l.08-.33a.37.37 0 0 1-.02-.16c0-.07-.01-.14-.03-.19h-4.18c-.27.1-.48.25-.64.45L20.8 3c-.45 1.16-1.6 2.94-3.5 5.36-.36.33-.8.5-1.3.5Z"></path></svg><svg fill="none" viewBox="0 0 24 19" id="socials-youtube"><path fill="currentColor" d="m15.85 8.8-5.24-3.5a.65.65 0 0 0-1.01.55v6.98a.65.65 0 0 0 1.01.54l5.24-3.49a.65.65 0 0 0 0-1.09Zm-4.94 2.8V7.08l3.4 2.27-3.4 2.27Zm12.48-8.56a2.4 2.4 0 0 0-1.45-1.63C18.22-.02 12.25 0 12 0S5.78-.02 2.06 1.4A2.4 2.4 0 0 0 .61 3.05 25.32 25.32 0 0 0 0 9.34c0 3.26.33 5.22.61 6.3a2.4 2.4 0 0 0 1.45 1.63c3.72 1.43 9.69 1.4 9.94 1.4h.08c.75 0 6.31-.04 9.86-1.4a2.4 2.4 0 0 0 1.45-1.64c.28-1.07.61-3.03.61-6.3 0-3.25-.33-5.22-.61-6.29Zm-1.27 12.27a1.1 1.1 0 0 1-.65.74c-3.5 1.34-9.4 1.32-9.47 1.32-.07 0-5.98.02-9.47-1.32a1.09 1.09 0 0 1-.65-.74c-.27-1-.57-2.85-.57-5.97 0-3.12.3-4.97.57-5.97a1.1 1.1 0 0 1 .65-.74C6.03 1.29 11.93 1.3 12 1.3c.07 0 5.98-.02 9.47 1.32a1.1 1.1 0 0 1 .65.74c.27 1 .57 2.85.57 5.97 0 3.12-.3 4.96-.57 5.97Z"></path></svg></svg>